<svg width="1440" height="381" viewBox="0 0 1440 381" fill="none" xmlns="http://www.w3.org/2000/svg">
<path fill-rule="evenodd" clip-rule="evenodd" d="M-21.491 131.363L24.7519 139.268C68.2716 147.154 160.757 162.962 250.822 133.166C340.886 103.37 433.975 28.0058 523.788 36.1985C613.601 44.3912 705.584 136.177 795.346 151.968C885.109 167.758 978.097 107.589 1068.11 85.3907C1158.13 63.1924 1250.61 79.0009 1340.63 56.8026C1430.64 34.6043 1523.63 -25.5647 1613.24 13.0189C1702.85 51.6026 1794.53 188.975 1884.24 212.363C1973.96 235.751 2067.15 145.191 2157.11 130.591C2247.07 115.99 2339.26 177.385 2429.12 177.98C2518.98 178.575 2609.91 137.98 2700.13 85.3907C2790.34 32.8014 2882.58 65.222 2972.44 65.8169C3062.3 66.4119 3155.04 62.309 3198.46 85.3907L3246.86 61.8249L3244.75 380.93L3198.46 380.624C3154.89 380.335 3062.3 379.722 2972.44 379.127C2882.58 378.532 2789.99 377.919 2700.13 377.325C2610.26 376.73 2517.68 376.117 2427.81 375.522C2337.95 374.927 2245.36 374.314 2155.5 373.719C2065.64 373.124 1973.05 372.511 1883.19 371.916C1793.33 371.321 1700.74 370.708 1610.88 370.113C1521.01 369.518 1428.43 368.905 1338.56 368.31C1248.7 367.715 1156.11 367.102 1066.25 366.507C976.387 365.912 883.801 365.299 793.938 364.704C704.075 364.11 611.488 363.497 521.625 362.902C431.762 362.307 339.176 361.694 249.313 361.099C159.449 360.504 66.8632 359.891 23.2931 359.602L-23 359.296L-21.491 131.363Z" fill="white"/>
</svg>
